<?xml version="1.0" encoding="UTF-8" standalone="no"?>
<!-- Created with Inkscape (http://www.inkscape.org/) -->

<svg
   width="152.49249mm"
   height="152.49248mm"
   viewBox="0 0 152.49249 152.49248"
   version="1.1"
   id="svg1"
   xmlns:inkscape="http://www.inkscape.org/namespaces/inkscape"
   xmlns:sodipodi="http://sodipodi.sourceforge.net/DTD/sodipodi-0.dtd"
   xmlns="http://www.w3.org/2000/svg"
   xmlns:svg="http://www.w3.org/2000/svg">
  <sodipodi:namedview
     id="namedview1"
     pagecolor="#ffffff"
     bordercolor="#000000"
     borderopacity="0.25"
     inkscape:showpageshadow="2"
     inkscape:pageopacity="0.0"
     inkscape:pagecheckerboard="0"
     inkscape:deskcolor="#d1d1d1"
     inkscape:document-units="mm" />
  <defs
     id="defs1" />
  <g
     inkscape:label="Layer 1"
     inkscape:groupmode="layer"
     id="layer1"
     transform="translate(-43.837117,-38.895816)">
    <path
       d="M 43.837118,38.895817 V 191.38828 H 196.32962 V 38.895817 Z"
       style="fill:#218cd7;fill-opacity:1"
       id="earth-texture"
       sodipodi:nodetypes="ccccc" />
  </g>
  <g
     inkscape:groupmode="layer"
     id="layer2"
     inkscape:label="Layer 2"
     transform="translate(-43.837117,-38.895816)">
    <path
       d="m 43.837118,100.19233 h 30.316495 v -0.0119 c 5.479065,-0.09 9.875271,-4.55421 9.881051,-10.034014 -0.002,-5.482825 -4.398966,-9.951755 -9.881051,-10.041765 v -0.0041 H 60.332235 v -10e-4 c -0.005,3.6e-4 -0.0091,7.43e-4 -0.01395,10e-4 -0.990699,1.6e-4 -1.793859,-0.803 -1.793689,-1.793689 1.2e-4,-0.990489 0.80319,-1.793342 1.793689,-1.793172 0.005,1.5e-4 0.0091,3.27e-4 0.01395,5.17e-4 v -5.17e-4 h 2.437577 V 76.5018 c 5.479065,-0.09 9.875271,-4.554208 9.881051,-10.034012 -0.002,-5.48282 -4.398966,-9.951757 -9.881051,-10.041765 v -0.0041 H 43.837118 Z"
       style="fill:#46cb5d;fill-opacity:1;stroke-width:0.264583"
       id="path12" />
    <path
       id="path3"
       style="fill:#46cb5d;fill-opacity:1;stroke:none;stroke-width:0.264583"
       d="m 58.010198,132.7064 c -5.54838,-2.5e-4 -10.04638,4.49752 -10.04642,10.0459 4e-5,5.54838 4.49804,10.04614 10.04642,10.04589 h 13.15519 c 0.99029,1.2e-4 1.79305,0.80288 1.79317,1.79317 1.6e-4,0.9905 -0.80268,1.79357 -1.79317,1.79369 h -7.24515 c -5.54839,-2.4e-4 -10.04638,4.49752 -10.04642,10.0459 4e-5,5.54838 4.49803,10.04615 10.04642,10.0459 h 43.339152 v -0.0119 c 5.47907,-0.09 9.87527,-4.5542 9.88105,-10.03401 -0.002,-5.48283 -4.39896,-9.95175 -9.88105,-10.04176 v -0.004 H 93.437981 v -0.001 c -0.005,3.6e-4 -0.009,7.1e-4 -0.0139,0.001 -0.9907,1.6e-4 -1.79385,-0.803 -1.79369,-1.79369 1.2e-4,-0.99049 0.8032,-1.79334 1.79369,-1.79317 0.005,1.5e-4 0.009,3.2e-4 0.0139,5.1e-4 v -5.1e-4 h 2.43761 v -0.0119 c 5.479069,-0.09 9.875269,-4.5542 9.881049,-10.03401 -0.002,-5.48283 -4.39896,-9.95176 -9.881049,-10.04177 v -0.004 z"
       sodipodi:nodetypes="ccccccccccccccccccccccccccc" />
    <path
       id="path4"
       style="fill:#46cb5d;fill-opacity:1;stroke:none;stroke-width:0.264583"
       d="m 118.07971,88.935945 c -5.54838,-2.5e-4 -10.04637,4.49752 -10.04641,10.0459 4e-5,5.548375 4.49803,10.046135 10.04641,10.045885 h 13.15519 c 0.99029,1.2e-4 1.79305,0.80288 1.79317,1.79318 1.6e-4,0.9905 -0.80268,1.79357 -1.79317,1.79369 h -7.24515 c -5.54839,-2.4e-4 -10.04638,4.49752 -10.04642,10.0459 4e-5,5.54838 4.49803,10.04615 10.04642,10.0459 h 43.33915 v -0.0119 c 5.47907,-0.09 9.87527,-4.5542 9.88105,-10.03401 -0.002,-5.48283 -4.39896,-9.95175 -9.88105,-10.04176 v -0.004 h -13.82141 v -10e-4 c -0.005,3.6e-4 -0.009,7.1e-4 -0.0139,10e-4 -0.9907,1.6e-4 -1.79385,-0.803 -1.79369,-1.79369 1.2e-4,-0.9905 0.8032,-1.79335 1.79369,-1.79318 0.005,1.5e-4 0.009,3.2e-4 0.0139,5.1e-4 v -5.1e-4 h 2.43761 v -0.0119 c 5.47907,-0.09 9.87527,-4.5542 9.88105,-10.034005 -0.002,-5.48283 -4.39896,-9.95176 -9.88105,-10.04177 v -0.004 z"
       sodipodi:nodetypes="ccccccccccccccccccccccccccc" />
    <path
       id="path5"
       style="fill:#46cb5d;fill-opacity:1;stroke:none;stroke-width:0.169896"
       d="m 144.16099,141.69274 c -3.56276,-1.6e-4 -6.45105,2.88798 -6.45107,6.45074 2e-5,3.56276 2.88831,6.4509 6.45107,6.45073 l 24.31437,-7e-4 v -0.008 c 3.51826,-0.0578 6.34117,-2.92438 6.34488,-6.44311 -0.001,-3.52067 -2.82468,-6.39029 -6.34488,-6.44808 v -0.003 z"
       sodipodi:nodetypes="ccccccccc" />
    <path
       d="M 196.32962,100.19233 V 56.421879 h -18.9327 c -5.54837,-2.47e-4 -10.04637,4.497524 -10.04641,10.045899 4e-5,5.548384 4.49804,10.046148 10.04641,10.045898 h 13.15527 c 0.99029,1.2e-4 1.79306,0.802883 1.79318,1.793172 1.6e-4,0.990499 -0.80269,1.793569 -1.79318,1.793689 h -7.24503 c -5.54839,-2.4e-4 -10.04638,4.497524 -10.04642,10.045899 4e-5,5.548374 4.49803,10.046144 10.04642,10.045894 z"
       style="fill:#46cb5d;fill-opacity:1;stroke-width:0.264583"
       id="path8" />
  </g>
</svg>
